<?xml version="1.0" standalone="no"?>
<!DOCTYPE svg PUBLIC "-//W3C//DTD SVG 20010904//EN"
 "http://www.w3.org/TR/2001/REC-SVG-20010904/DTD/svg10.dtd">
<svg version="1.0" xmlns="http://www.w3.org/2000/svg"
 width="512.000000pt" height="512.000000pt" viewBox="0 0 512.000000 512.000000"
 preserveAspectRatio="xMidYMid meet">

<g transform="translate(0.000000,512.000000) scale(0.100000,-0.100000)"
stroke="none">
<path d="M425 4695 l-25 -24 0 -1633 0 -1632 143 -143 143 -143 832 0 833 0
24 25 25 24 0 776 0 775 775 0 776 0 25 25 24 24 -2 836 -3 836 -141 139 -140
140 -1633 0 -1632 0 -24 -25z m1660 -175 l39 -40 -685 0 -685 0 -39 40 -39 40
685 0 685 0 39 -40z m1600 0 l39 -40 -685 0 -685 0 -39 40 -39 40 685 0 685 0
39 -40z m-3045 -839 l0 -685 -40 39 -40 39 0 685 0 685 40 -39 40 -39 0 -685z
m1600 -81 l0 -720 -720 0 -720 0 0 720 0 720 720 0 720 0 0 -720z m1600 0 l0
-720 -720 0 -720 0 0 720 0 720 720 0 720 0 0 -720z m-3200 -1519 l0 -685 -40
39 -40 39 0 685 0 685 40 -39 40 -39 0 -685z m1600 -81 l0 -720 -720 0 -720 0
0 720 0 720 720 0 720 0 0 -720z"/>
<path d="M1003 4150 c-12 -5 -26 -18 -32 -29 -7 -13 -11 -187 -11 -526 l0
-506 25 -24 c16 -16 35 -25 57 -25 28 0 56 24 255 222 l223 223 218 -217 c134
-134 227 -219 243 -223 31 -8 83 16 93 40 3 9 6 244 6 521 l0 505 -25 24 c-32
33 -78 33 -110 0 l-25 -24 0 -398 0 -397 -183 182 c-165 164 -187 182 -217
182 -30 0 -52 -18 -217 -182 l-183 -182 0 396 c0 362 -1 398 -17 417 -21 24
-68 35 -100 21z"/>
<path d="M3042 4148 c-134 -14 -289 -99 -363 -201 -69 -93 -119 -239 -119
-347 0 -74 27 -180 66 -260 67 -135 208 -246 359 -280 71 -17 219 -14 289 5
197 53 348 214 391 420 27 130 11 247 -52 375 -101 206 -317 315 -571 288z
m232 -179 c161 -62 265 -252 237 -430 -42 -258 -297 -403 -545 -308 -160 62
-268 256 -237 430 29 166 141 289 298 329 60 15 181 5 247 -21z"/>
<path d="M985 2535 l-25 -24 0 -509 c0 -485 1 -511 19 -533 14 -18 29 -24 61
-24 32 0 47 6 61 24 17 21 19 41 19 197 l0 174 300 0 299 0 112 -189 c132
-222 153 -240 218 -185 20 17 31 35 31 52 0 16 -38 90 -89 177 l-89 150 43 22
c53 28 108 91 123 142 16 52 16 332 0 385 -16 55 -99 138 -154 154 -30 9 -163
12 -473 12 l-432 0 -24 -25z m910 -160 c24 -23 25 -28 25 -169 0 -79 -3 -152
-6 -161 -16 -42 -45 -45 -429 -45 l-365 0 0 200 0 200 375 0 376 0 24 -25z"/>
<path d="M2665 2455 l-25 -24 0 -833 0 -832 143 -143 143 -143 832 0 833 0 24
25 25 24 0 832 0 832 -143 144 -142 143 -833 0 -833 0 -24 -25z m1660 -175
l39 -40 -685 0 -685 0 -39 40 -39 40 685 0 685 0 39 -40z m-1445 -839 l0 -685
-40 39 -40 39 0 685 0 685 40 -39 40 -39 0 -685z m1600 -81 l0 -720 -720 0
-720 0 0 720 0 720 720 0 720 0 0 -720z"/>
<path d="M3225 1895 l-25 -24 0 -511 0 -511 25 -24 24 -25 278 0 c316 0 374 8
493 66 135 67 246 209 280 359 16 71 13 220 -5 289 -39 146 -147 279 -276 341
-121 57 -178 65 -492 65 l-278 0 -24 -25z m689 -165 c162 -66 265 -254 237
-431 -27 -165 -143 -292 -302 -328 -24 -6 -144 -11 -266 -11 l-223 0 0 401 0
401 248 -4 c233 -4 250 -5 306 -28z"/>
</g>
</svg>
