<?xml version="1.0" standalone="no"?>
<!DOCTYPE svg PUBLIC "-//W3C//DTD SVG 20010904//EN"
 "http://www.w3.org/TR/2001/REC-SVG-20010904/DTD/svg10.dtd">
<svg version="1.0" xmlns="http://www.w3.org/2000/svg"
 width="128.000000pt" height="128.000000pt" viewBox="0 0 128.000000 128.000000"
 preserveAspectRatio="xMidYMid meet">

<g transform="translate(0.000000,128.000000) scale(0.100000,-0.100000)"
fill="#000000" stroke="none">
<path d="M92 1263 c-18 -9 -45 -32 -60 -51 l-27 -35 -3 -271 c-2 -149 0 -286
3 -304 8 -45 74 -109 119 -118 l36 -6 0 -107 c0 -108 7 -131 39 -131 9 0 79
54 156 120 l139 119 221 3 222 3 35 27 c67 51 69 64 66 381 l-3 284 -27 35
c-52 68 -51 68 -490 68 -343 0 -397 -3 -426 -17z m842 -89 l26 -27 0 -267 0
-267 -26 -27 -27 -26 -221 0 -221 0 -110 -94 -110 -94 -3 81 c-2 44 -8 87 -14
94 -6 7 -26 13 -45 13 -38 0 -71 15 -90 39 -18 23 -18 539 0 562 29 37 45 38
433 39 l381 0 27 -26z"/>
<path d="M252 1028 c-16 -16 -15 -43 2 -57 9 -8 89 -11 271 -9 233 3 259 5
269 21 8 12 8 22 0 35 -10 15 -36 17 -270 20 -194 2 -263 -1 -272 -10z"/>
<path d="M252 868 c-7 -7 -12 -20 -12 -29 0 -35 23 -40 205 -37 157 3 179 5
189 21 8 12 8 22 0 35 -10 15 -32 17 -190 20 -131 2 -183 -1 -192 -10z"/>
<path d="M1132 1018 c-21 -21 -13 -47 18 -63 16 -8 34 -24 40 -34 6 -12 10
-122 10 -284 l0 -264 -26 -27 c-21 -20 -37 -26 -69 -26 -23 0 -47 -6 -53 -13
-6 -7 -12 -50 -14 -94 l-3 -81 -110 94 -110 94 -194 -2 c-172 -3 -195 -5 -205
-20 -8 -13 -8 -23 0 -35 10 -16 32 -18 190 -21 l179 -2 140 -120 c77 -66 147
-120 156 -120 32 0 39 23 39 131 l0 107 32 6 c43 8 92 48 112 89 14 30 16 75
16 304 0 243 -2 272 -20 310 -28 62 -98 101 -128 71z"/>
</g>
</svg>
