<?xml version="1.0" standalone="no"?>
<!DOCTYPE svg PUBLIC "-//W3C//DTD SVG 20010904//EN"
 "http://www.w3.org/TR/2001/REC-SVG-20010904/DTD/svg10.dtd">
<svg version="1.0" xmlns="http://www.w3.org/2000/svg"
 width="64.000000pt" height="64.000000pt" viewBox="0 0 64.000000 64.000000"
 preserveAspectRatio="xMidYMid meet">

<g transform="translate(0.000000,64.000000) scale(0.100000,-0.100000)"
fill="#000000" stroke="none">
<path d="M277 609 c-23 -30 -25 -30 -65 -18 -49 14 -72 2 -72 -40 0 -34 -17
-51 -51 -51 -41 0 -54 -23 -40 -71 12 -38 11 -40 -19 -65 -38 -33 -38 -55 0
-88 30 -25 31 -27 19 -65 -14 -48 -1 -71 40 -71 34 0 51 -17 51 -51 0 -41 23
-54 71 -40 38 12 40 11 65 -19 33 -38 56 -38 87 1 23 30 25 30 65 18 49 -14
72 -2 72 40 0 34 17 51 51 51 41 0 54 23 40 71 -12 38 -11 40 19 65 38 33 38
55 0 88 -30 25 -31 27 -19 65 14 48 1 71 -40 71 -34 0 -51 17 -51 51 0 41 -23
54 -71 40 -38 -12 -40 -11 -65 19 -33 38 -56 38 -87 -1z m76 -30 c21 -24 33
-30 50 -25 69 19 65 20 72 -18 8 -41 18 -51 63 -61 29 -6 33 -10 28 -28 -3
-12 -9 -32 -12 -44 -5 -17 2 -30 27 -53 l33 -30 -33 -30 c-25 -23 -32 -36 -27
-53 3 -12 9 -32 12 -44 5 -18 1 -22 -28 -28 -45 -10 -55 -20 -63 -61 -7 -38
-3 -37 -72 -18 -17 5 -30 -2 -53 -27 l-30 -33 -30 33 c-23 25 -36 32 -53 27
-69 -19 -65 -20 -72 18 -8 41 -18 51 -63 61 -29 6 -33 10 -28 28 3 12 9 32 12
44 5 17 -2 30 -27 53 l-33 30 33 30 c25 23 32 36 27 53 -19 68 -19 65 16 72
45 10 55 20 63 61 7 38 3 37 72 18 17 -5 29 1 50 25 15 17 30 31 33 31 3 0 18
-14 33 -31z"/>
<path d="M140 319 c0 -52 3 -70 13 -67 6 3 14 20 17 38 l5 34 28 -37 c15 -20
32 -37 38 -37 6 0 9 27 7 68 -3 70 -19 87 -28 31 l-5 -33 -28 37 c-15 20 -32
37 -38 37 -5 0 -9 -32 -9 -71z"/>
<path d="M280 320 l0 -70 41 0 c43 0 52 22 11 28 -31 5 -28 32 3 32 14 0 25 5
25 10 0 6 -11 10 -25 10 -31 0 -34 27 -3 32 41 6 32 28 -11 28 l-41 0 0 -70z"/>
<path d="M394 359 c20 -103 41 -137 53 -89 3 11 9 20 13 20 4 0 10 -9 13 -20
3 -11 9 -20 15 -20 14 0 43 123 32 134 -9 9 -29 -29 -31 -57 0 -7 -5 -2 -11
11 -14 28 -28 28 -36 0 -5 -20 -7 -19 -17 12 -16 47 -40 54 -31 9z"/>
</g>
</svg>
