<?xml version="1.0" standalone="no"?>
<!DOCTYPE svg PUBLIC "-//W3C//DTD SVG 20010904//EN"
 "http://www.w3.org/TR/2001/REC-SVG-20010904/DTD/svg10.dtd">
<svg version="1.0" xmlns="http://www.w3.org/2000/svg"
 width="128.000000pt" height="128.000000pt" viewBox="0 0 128.000000 128.000000"
 preserveAspectRatio="xMidYMid meet">

<g transform="translate(0.000000,128.000000) scale(0.100000,-0.100000)"
fill="#000000" stroke="none">
<path d="M40 1250 c-20 -20 -20 -33 -20 -608 0 -516 2 -590 16 -610 l15 -22
450 0 c436 0 450 1 469 20 20 20 20 33 20 610 0 577 0 590 -20 610 -19 19 -33
20 -465 20 -432 0 -446 -1 -465 -20z m905 -610 l0 -585 -440 0 -440 0 -3 575
c-1 316 0 581 3 588 3 10 97 12 442 10 l438 -3 0 -585z"/>
<path d="M155 1140 c-15 -25 13 -30 166 -30 147 0 160 1 157 18 -3 15 -20 17
-160 20 -99 1 -159 -1 -163 -8z"/>
<path d="M556 1134 c-9 -23 -7 -277 2 -292 7 -9 44 -12 153 -10 l144 3 0 155
0 155 -146 3 c-127 2 -147 0 -153 -14z m264 -144 l0 -120 -115 0 -115 0 0 120
0 120 115 0 115 0 0 -120z"/>
<path d="M155 1000 c-15 -25 13 -30 166 -30 147 0 160 1 157 18 -3 15 -20 17
-160 20 -99 1 -159 -1 -163 -8z"/>
<path d="M155 860 c-15 -25 13 -30 166 -30 147 0 160 1 157 18 -3 15 -20 17
-160 20 -99 1 -159 -1 -163 -8z"/>
<path d="M155 719 c-4 -6 -3 -15 2 -20 5 -5 152 -8 354 -7 298 3 344 5 344 18
0 13 -46 15 -347 18 -244 1 -349 -1 -353 -9z"/>
<path d="M155 579 c-4 -6 -3 -15 2 -20 5 -5 152 -8 354 -7 298 3 344 5 344 18
0 13 -46 15 -347 18 -244 1 -349 -1 -353 -9z"/>
<path d="M155 439 c-4 -6 -3 -15 2 -20 5 -5 152 -8 354 -7 298 3 344 5 344 18
0 13 -46 15 -347 18 -244 1 -349 -1 -353 -9z"/>
<path d="M155 299 c-4 -6 -3 -15 2 -20 5 -5 152 -8 354 -7 298 3 344 5 344 18
0 13 -46 15 -347 18 -244 1 -349 -1 -353 -9z"/>
<path d="M155 159 c-15 -23 16 -30 131 -27 98 2 119 6 119 18 0 12 -21 15
-122 18 -81 2 -124 -1 -128 -9z"/>
<path d="M1076 968 c-14 -19 -16 -69 -16 -345 l0 -323 44 -95 c25 -52 50 -95
56 -95 6 0 31 43 56 96 l44 95 0 328 c0 383 6 361 -103 361 -57 0 -68 -3 -81
-22z m144 -68 l0 -50 -60 0 -60 0 0 43 c0 24 3 47 7 50 3 4 30 7 60 7 l53 0 0
-50z m0 -335 l0 -245 -60 0 -60 0 0 245 0 245 60 0 60 0 0 -245z m-32 -332
c-11 -27 -22 -50 -24 -52 -3 -3 -44 85 -44 95 0 2 20 4 44 4 l45 0 -21 -47z"/>
</g>
</svg>
