<?xml version="1.0" standalone="no"?>
<!DOCTYPE svg PUBLIC "-//W3C//DTD SVG 20010904//EN"
 "http://www.w3.org/TR/2001/REC-SVG-20010904/DTD/svg10.dtd">
<svg version="1.0" xmlns="http://www.w3.org/2000/svg"
 width="128.000000pt" height="128.000000pt" viewBox="0 0 128.000000 128.000000"
 preserveAspectRatio="xMidYMid meet">

<g transform="translate(0.000000,128.000000) scale(0.100000,-0.100000)"
fill="#000000" stroke="none">
<path d="M30 1251 l-30 -29 0 -581 0 -580 24 -28 24 -28 591 0 590 0 23 23
c19 19 23 33 23 90 0 53 -3 67 -15 67 -11 0 -16 -16 -20 -63 -3 -40 -10 -66
-20 -72 -8 -6 -133 -10 -287 -10 l-273 0 0 104 c0 118 -8 133 -62 122 -93 -19
-96 -19 -123 8 -21 21 -26 34 -23 64 2 28 -1 38 -14 40 -24 5 -33 -48 -14 -92
16 -38 67 -76 104 -76 12 0 38 7 57 14 l35 15 0 -100 0 -99 -274 0 c-236 0
-277 2 -290 16 -14 13 -16 54 -16 290 l0 274 104 0 c118 0 133 8 122 62 -19
93 -19 96 8 122 33 34 79 34 112 0 27 -26 27 -29 8 -122 -11 -54 4 -62 122
-62 l104 0 0 -99 0 -100 -36 15 c-44 18 -88 15 -92 -7 -2 -13 7 -18 35 -22 21
-3 53 -9 71 -13 54 -11 62 4 62 122 l0 104 99 0 99 0 -16 -43 c-25 -71 7 -137
77 -158 49 -15 103 7 131 53 24 39 25 66 6 113 l-15 35 99 0 100 0 2 -187 c3
-159 5 -188 18 -188 13 0 15 61 15 493 l0 494 -28 24 -28 24 -457 -2 c-398 -3
-457 -5 -457 -18 0 -13 25 -15 157 -18 l158 -3 0 -97 c0 -118 10 -138 61 -128
95 19 97 19 123 -8 17 -16 26 -36 26 -56 0 -20 -9 -40 -26 -56 -26 -27 -24
-27 -130 -8 -38 7 -56 -13 -52 -58 4 -45 32 -45 36 0 3 27 7 32 20 27 57 -24
71 -27 97 -21 15 4 40 20 56 35 50 51 51 107 0 163 -24 27 -36 32 -72 32 -24
0 -56 -3 -71 -8 l-28 -8 0 96 0 96 274 0 c236 0 277 -2 290 -16 14 -13 16 -54
16 -290 l0 -274 -104 0 c-118 0 -133 -8 -122 -62 19 -93 19 -96 -8 -122 -33
-34 -79 -34 -112 0 -27 26 -27 29 -8 122 11 54 -4 62 -122 62 l-103 0 -3 38
c-2 25 -8 37 -18 37 -10 0 -16 -12 -18 -37 l-3 -38 -100 0 c-54 0 -99 2 -99 5
0 4 7 20 16 37 46 90 -54 194 -149 155 -67 -28 -87 -87 -61 -174 6 -23 5 -23
-90 -23 l-96 0 0 273 c0 153 4 279 10 287 7 11 35 16 102 20 74 4 93 8 93 20
0 12 -18 16 -93 18 -91 3 -93 2 -122 -27z"/>
<path d="M206 1162 c-6 -11 33 -215 44 -226 16 -16 36 11 55 74 10 33 21 60
25 60 4 0 15 -30 25 -66 16 -60 36 -86 52 -70 14 13 52 221 42 230 -16 17 -29
-7 -41 -72 -6 -34 -14 -62 -17 -62 -3 0 -15 30 -26 68 -26 86 -43 88 -70 5
-11 -34 -23 -64 -26 -68 -4 -3 -10 15 -14 41 -11 78 -32 114 -49 86z"/>
<path d="M993 1051 c-35 -22 -63 -67 -63 -101 0 -55 65 -120 120 -120 37 0 88
35 106 74 48 100 -69 206 -163 147z m112 -46 c16 -15 25 -36 25 -55 0 -19 -9
-40 -25 -55 -15 -16 -36 -25 -55 -25 -19 0 -40 9 -55 25 -16 15 -25 36 -25 55
0 19 9 40 25 55 15 16 36 25 55 25 19 0 40 -9 55 -25z"/>
<path d="M155 438 c-3 -8 -4 -61 -3 -119 l3 -104 57 0 c67 0 93 19 108 77 13
46 -1 106 -30 133 -27 24 -127 34 -135 13z m109 -44 c50 -50 21 -144 -45 -144
l-29 0 0 80 0 80 29 0 c16 0 37 -7 45 -16z"/>
<path d="M887 343 c-12 -11 -8 -221 4 -229 15 -9 29 14 29 51 l1 30 37 -42
c21 -24 43 -43 50 -43 22 0 12 34 -20 67 -18 18 -27 33 -20 33 22 0 52 40 52
69 0 39 -40 71 -90 71 -20 0 -40 -3 -43 -7z m92 -51 c13 -24 2 -39 -32 -47
-26 -7 -27 -5 -27 29 0 32 3 36 25 36 13 0 29 -8 34 -18z"/>
</g>
</svg>
