<?xml version="1.0" standalone="no"?>
<!DOCTYPE svg PUBLIC "-//W3C//DTD SVG 20010904//EN"
 "http://www.w3.org/TR/2001/REC-SVG-20010904/DTD/svg10.dtd">
<svg version="1.0" xmlns="http://www.w3.org/2000/svg"
 width="128.000000pt" height="128.000000pt" viewBox="0 0 128.000000 128.000000"
 preserveAspectRatio="xMidYMid meet">

<g transform="translate(0.000000,128.000000) scale(0.100000,-0.100000)"
fill="#000000" stroke="none">
<path d="M708 1263 c-39 -24 -46 -49 -65 -204 -9 -77 -20 -134 -24 -127 -3 7
-14 67 -23 132 -18 126 -31 156 -72 174 -59 27 -134 -5 -148 -64 -4 -14 7
-121 25 -237 20 -140 28 -212 21 -215 -6 -2 -26 -13 -44 -25 -28 -19 -39 -40
-70 -127 -39 -112 -48 -196 -26 -247 7 -15 41 -71 77 -123 54 -78 67 -104 71
-145 4 -42 8 -50 25 -50 17 0 20 8 23 54 3 54 2 57 -74 167 -98 144 -100 160
-50 312 32 96 41 112 64 120 15 5 85 8 157 8 122 -1 130 -2 130 -21 0 -34 -83
-76 -167 -83 -63 -6 -73 -10 -76 -27 -2 -13 9 -28 33 -44 58 -39 126 -121 157
-189 21 -46 33 -62 46 -60 9 2 18 11 20 22 6 27 -52 135 -103 193 l-45 51 32
7 c45 9 111 49 140 83 13 16 29 27 35 25 17 -6 21 4 113 251 47 126 92 233
101 239 26 16 68 0 75 -29 9 -34 -152 -471 -212 -576 -62 -108 -57 -165 16
-203 40 -21 62 -19 104 10 l36 24 0 -22 c-1 -30 -30 -93 -74 -157 -32 -47 -37
-60 -34 -104 3 -43 6 -51 23 -51 16 0 21 8 25 47 4 28 15 59 28 75 13 16 37
57 54 92 27 55 32 77 33 145 1 53 7 94 19 120 10 23 15 49 11 66 -7 34 -51 75
-87 84 -16 3 -28 10 -28 14 0 4 34 99 75 210 82 222 85 244 33 287 -20 17 -42
25 -69 25 -61 0 -90 -35 -138 -165 -22 -60 -40 -104 -41 -97 0 8 7 70 15 139
9 69 13 138 10 153 -14 63 -102 99 -157 63z m92 -53 c16 -16 19 -29 15 -53 -6
-39 -55 -443 -55 -457 0 -7 -9 -5 -22 4 -12 9 -35 16 -50 16 -20 0 -28 5 -28
18 0 9 11 116 26 237 22 189 28 222 46 238 26 22 43 22 68 -3z m-288 -27 c10
-12 27 -92 47 -228 17 -116 31 -216 31 -223 0 -9 -14 -12 -52 -10 l-52 3 -28
185 c-35 236 -36 259 -13 276 25 19 49 17 67 -3z m516 -615 c21 -21 13 -57
-30 -133 -44 -77 -62 -91 -104 -81 -35 9 -41 47 -14 93 73 123 82 133 109 133
15 0 32 -5 39 -12z"/>
</g>
</svg>
